HIERARCHY
ROOT Hips
{
 OFFSET 0.000000 0.000000 0.000000
 CHANNELS 6 Xposition Yposition Zposition Yrotation Xrotation Zrotation
 JOINT Chest
 {
  OFFSET 0.000000 10.366939 -0.000175
  CHANNELS 3 Yrotation Xrotation Zrotation
  JOINT Chest2
  {
   OFFSET 0.000000 11.433790 0.000318
   CHANNELS 3 Yrotation Xrotation Zrotation
   JOINT Chest3
   {
    OFFSET 0.000000 10.331133 0.000000
    CHANNELS 3 Yrotation Xrotation Zrotation
    JOINT Chest4
    {
     OFFSET 0.000000 10.331133 0.000000
     CHANNELS 3 Yrotation Xrotation Zrotation
     JOINT Neck
     {
      OFFSET 0.000000 14.530095 0.000000
      CHANNELS 3 Yrotation Xrotation Zrotation
      JOINT Head
      {
       OFFSET 0.000000 9.616255 0.000757
       CHANNELS 3 Yrotation Xrotation Zrotation
       End Site
       {
        OFFSET 0.000000 18.398191 0.000395
       }
      }
     }
     JOINT RightCollar
     {
      OFFSET -3.159467 8.107572 0.000000
      CHANNELS 3 Yrotation Xrotation Zrotation
      JOINT RightShoulder
      {
       OFFSET -14.759419 0.000000 0.000000
       CHANNELS 3 Yrotation Xrotation Zrotation
       JOINT RightElbow
       {
        OFFSET 0.000000 -31.561777 0.000000
        CHANNELS 3 Yrotation Xrotation Zrotation
        JOINT RightWrist
        {
         OFFSET 0.000000 -25.811607 0.000000
         CHANNELS 3 Yrotation Xrotation Zrotation
         End Site
         {
          OFFSET 0.000000 -19.296333 0.000000
         }
        }
       }
      }
     }
     JOINT LeftCollar
     {
      OFFSET 3.159467 8.107572 0.000000
      CHANNELS 3 Yrotation Xrotation Zrotation
      JOINT LeftShoulder
      {
       OFFSET 14.759419 0.000000 0.000000
       CHANNELS 3 Yrotation Xrotation Zrotation
       JOINT LeftElbow
       {
        OFFSET 0.000000 -31.561777 0.000000
        CHANNELS 3 Yrotation Xrotation Zrotation
        JOINT LeftWrist
        {
         OFFSET 0.000000 -25.811607 0.000000
         CHANNELS 3 Yrotation Xrotation Zrotation
         End Site
         {
          OFFSET 0.000000 -19.296333 0.000000
         }
        }
       }
      }
     }
    }
   }
  }
 }
 JOINT RightHip
 {
  OFFSET -8.420485 0.000859 0.000088
  CHANNELS 3 Yrotation Xrotation Zrotation
  JOINT RightKnee
  {
   OFFSET 0.000000 -43.611855 -0.000083
   CHANNELS 3 Yrotation Xrotation Zrotation
   JOINT RightAnkle
   {
    OFFSET 0.000000 -42.630478 -0.000140
    CHANNELS 3 Yrotation Xrotation Zrotation
    JOINT RightToe
    {
     OFFSET 0.000000 -7.539428 17.119853
     CHANNELS 3 Yrotation Xrotation Zrotation
     End Site
     {
      OFFSET 0.000000 -1.595212 6.940629
     }
    }
   }
  }
 }
 JOINT LeftHip
 {
  OFFSET 8.420485 0.000859 0.000088
  CHANNELS 3 Yrotation Xrotation Zrotation
  JOINT LeftKnee
  {
   OFFSET 0.000000 -43.611855 -0.000083
   CHANNELS 3 Yrotation Xrotation Zrotation
   JOINT LeftAnkle
   {
    OFFSET 0.000000 -42.630478 -0.000140
    CHANNELS 3 Yrotation Xrotation Zrotation
    JOINT LeftToe
    {
     OFFSET 0.000000 -7.539428 17.119853
     CHANNELS 3 Yrotation Xrotation Zrotation
     End Site
     {
      OFFSET 0.000000 -1.595212 6.940629
     }
    }
   }
  }
 }
}
MOTION
Frames: 10
Frame Time: 0.008333
407.008779 47.229635 121.906043 -78.492638 -20.869524 0.315599 0.764477 14.836228 -0.203164 0.099455 6.561450 -0.576577 0.099455 6.561450 -0.576577 0.080724 4.920999 -0.433030 -1.725010 11.322439 0.980531 -3.748108 -15.102596 2.644350 0.554009 3.311451 11.259663 3.959913 -28.372653 -24.564349 64.451934 -45.095806 -35.061539 19.842949 -7.976718 0.236288 0.744196 2.290075 -9.023071 -0.771648 -30.998229 14.279679 -53.201859 -29.126173 18.519081 -17.485181 -0.376403 -13.496353 -11.312686 -71.607781 -12.919669 164.532789 64.269565 158.862300 4.303629 -21.552184 -0.644026 -0.272190 0.957781 -0.117353 -8.103679 -74.897631 34.322269 -148.132193 62.707676 -146.411769 -1.059708 -13.339524 -2.231261 -0.688552 -1.065987 -0.310756
407.009292 47.229921 121.906644 -78.497417 -20.881222 0.319135 0.760041 14.837063 -0.201024 0.096785 6.560257 -0.576511 0.096785 6.560257 -0.576511 0.078722 4.920107 -0.432953 -1.726942 11.333465 0.980863 -3.751487 -15.082038 2.645335 0.560528 3.325646 11.259168 3.988643 -28.382572 -24.593867 64.394993 -45.132903 -34.999102 19.886692 -7.969713 0.227653 0.740218 2.298420 -9.016137 -0.767323 -30.989031 14.276521 -53.214216 -29.063747 18.521560 -17.473186 -0.407202 -13.468489 -11.334913 -71.603421 -12.900604 164.537623 64.269295 158.861588 4.290647 -21.544898 -0.646813 -0.275431 0.955324 -0.117833 -8.096834 -74.884880 34.319077 -148.129619 62.705016 -146.411746 -1.062492 -13.337932 -2.233108 -0.684221 -1.067397 -0.306369
407.010023 47.229732 121.906338 -78.507232 -20.885867 0.322729 0.755862 14.841493 -0.194779 0.093058 6.558949 -0.576439 0.093058 6.558949 -0.576439 0.075927 4.919129 -0.432858 -1.724484 11.343393 0.978234 -3.745178 -15.063822 2.638753 0.570452 3.331482 11.247578 4.017194 -28.385297 -24.624126 64.335854 -45.178575 -34.938252 19.936864 -7.971131 0.221524 0.744538 2.305671 -9.004772 -0.758186 -30.984412 14.266834 -53.218616 -29.033514 18.538157 -17.483838 -0.420748 -13.466180 -11.347610 -71.595857 -12.877559 164.515688 64.270617 158.833557 4.291157 -21.553796 -0.651520 -0.274099 0.965810 -0.117088 -8.108817 -74.874079 34.332779 -148.145148 62.707346 -146.433909 -1.062264 -13.343684 -2.230542 -0.691779 -1.065887 -0.309255
407.010397 47.228600 121.903719 -78.524623 -20.891853 0.322451 0.755578 14.844256 -0.189015 0.089853 6.558094 -0.577182 0.089853 6.558094 -0.577182 0.073534 4.918491 -0.433381 -1.720828 11.353107 0.977505 -3.737412 -15.045970 2.635308 0.584332 3.328940 11.247737 4.050685 -28.383454 -24.659494 64.266022 -45.222151 -34.873247 19.985908 -7.973839 0.213264 0.746990 2.314971 -8.989001 -0.746727 -30.981675 14.257709 -53.234495 -28.968403 18.545390 -17.477114 -0.456429 -13.441908 -11.367484 -71.594081 -12.843770 164.516049 64.270084 158.829324 4.326546 -21.545924 -0.664901 -0.274852 0.963282 -0.119591 -8.139687 -74.870143 34.376922 -148.158600 62.701171 -146.450868 -1.049989 -13.339152 -2.231545 -0.695115 -1.073025 -0.310793
407.011384 47.228410 121.903044 -78.522827 -20.895130 0.321840 0.736155 14.845016 -0.187334 0.085521 6.558401 -0.576389 0.085521 6.558401 -0.576389 0.070280 4.918726 -0.432740 -1.714912 11.361775 0.972551 -3.723498 -15.030331 2.622804 0.593441 3.329171 11.239640 4.084901 -28.383952 -24.691614 64.203556 -45.261702 -34.807466 20.038192 -7.991995 0.202896 0.759663 2.319363 -8.976884 -0.748390 -30.969946 14.252461 -53.218773 -28.936698 18.565042 -17.500258 -0.481994 -13.448554 -11.385186 -71.588999 -12.825254 164.511988 64.270570 158.821793 4.319826 -21.552935 -0.664018 -0.270277 0.969635 -0.120096 -8.153926 -74.864826 34.384079 -148.166484 62.703689 -146.458168 -1.066569 -13.340536 -2.231317 -0.694991 -1.072704 -0.310420
407.012752 47.228471 121.903619 -78.527814 -20.904294 0.330647 0.718435 14.846369 -0.189538 0.080376 6.559038 -0.577057 0.080376 6.559038 -0.577057 0.066434 4.919208 -0.433185 -1.707820 11.371943 0.967624 -3.707274 -15.011950 2.609772 0.610206 3.325757 11.230324 4.117972 -28.386124 -24.725359 64.130763 -45.302199 -34.732414 20.086577 -8.001508 0.199511 0.770636 2.319335 -8.968317 -0.742368 -30.955496 14.252681 -53.231545 -28.880186 18.564643 -17.500900 -0.515309 -13.423902 -11.368211 -71.583371 -12.840365 164.517409 64.273239 158.824484 4.312251 -21.552309 -0.658069 -0.271354 0.972473 -0.123318 -8.123177 -74.856212 34.349892 -148.176513 62.704448 -146.467680 -1.068355 -13.340152 -2.230126 -0.697648 -1.076211 -0.311730
407.011582 47.228862 121.902867 -78.536841 -20.914825 0.332943 0.709552 14.850914 -0.184169 0.076351 6.557915 -0.576745 0.076351 6.557915 -0.576745 0.063414 4.918369 -0.432908 -1.700130 11.383947 0.961928 -3.689489 -14.990217 2.594923 0.617725 3.329988 11.218591 4.155372 -28.381875 -24.757444 64.063730 -45.345738 -34.665701 20.134585 -8.002259 0.193083 0.772753 2.330514 -8.953206 -0.726724 -30.943784 14.243155 -53.242992 -28.853006 18.586939 -17.513250 -0.531796 -13.430572 -11.376712 -71.570533 -12.826418 164.483136 64.272328 158.789000 4.278026 -21.558017 -0.643886 -0.285581 0.979669 -0.130753 -8.110538 -74.846392 34.344206 -148.193416 62.703869 -146.479034 -1.058888 -13.344224 -2.238981 -0.687655 -1.078190 -0.308196
407.012865 47.228881 121.903590 -78.535031 -20.919711 0.343973 0.689666 14.845580 -0.189399 0.072780 6.556280 -0.577064 0.072780 6.556280 -0.577064 0.060740 4.917147 -0.433108 -1.694323 11.395724 0.953949 -3.674338 -14.968923 2.576528 0.622646 3.341423 11.206470 4.200513 -28.389760 -24.796960 63.987524 -45.387725 -34.588432 20.173297 -8.003362 0.190760 0.774177 2.343988 -8.940942 -0.722421 -30.933933 14.241915 -53.250490 -28.801279 18.581797 -17.515740 -0.561887 -13.411338 -11.367293 -71.571205 -12.844274 164.483332 64.270806 158.785435 4.279655 -21.557669 -0.650738 -0.281631 0.981293 -0.128596 -8.066599 -74.839440 34.297611 -148.192843 62.708190 -146.479416 -1.079097 -13.349977 -2.234911 -0.684274 -1.074998 -0.305915
407.015294 47.229862 121.905328 -78.526652 -20.918968 0.356516 0.666714 14.837163 -0.195856 0.069025 6.555956 -0.576261 0.069025 6.555956 -0.576261 0.057918 4.916907 -0.432466 -1.687433 11.407895 0.946850 -3.657480 -14.946898 2.559339 0.619045 3.354295 11.195824 4.256359 -28.394320 -24.837968 63.910258 -45.428962 -34.522374 20.216994 -8.009600 0.194150 0.764903 2.354842 -8.936148 -0.713140 -30.923329 14.240455 -53.257746 -28.770924 18.603125 -17.526731 -0.574850 -13.418536 -11.346240 -71.573872 -12.882552 164.480774 64.274258 158.783774 4.269926 -21.562538 -0.649481 -0.280108 0.988440 -0.130300 -8.028173 -74.835422 34.244291 -148.190900 62.717513 -146.484081 -1.080946 -13.352409 -2.233970 -0.684901 -1.072542 -0.305190
407.017296 47.230759 121.903519 -78.535092 -20.926880 0.362173 0.658318 14.834569 -0.195411 0.065434 6.556906 -0.576230 0.065434 6.556906 -0.576230 0.055228 4.917623 -0.432405 -1.677496 11.418208 0.941708 -3.635709 -14.928360 2.544661 0.624626 3.363852 11.187818 4.295479 -28.401372 -24.870627 63.838723 -45.469374 -34.454839 20.260518 -8.011937 0.185037 0.767976 2.361552 -8.926095 -0.710597 -30.910767 14.238288 -53.276204 -28.718918 18.606606 -17.530096 -0.603698 -13.393104 -11.344042 -71.570290 -12.884700 164.472419 64.275435 158.771111 4.319887 -21.553136 -0.667681 -0.279229 0.986263 -0.130833 -8.020261 -74.825492 34.237436 -148.192377 62.719191 -146.488720 -1.063680 -13.351186 -2.238427 -0.688162 -1.076482 -0.305853
